<svg xmlns="http://www.w3.org/2000/svg" version="1.1" xmlns:xlink="http://www.w3.org/1999/xlink" xmlns:svgjs="http://svgjs.dev/svgjs" width="2000" height="1500" viewBox="0 0 2000 1500"><rect width="2000" height="1500" fill="#331e6d"></rect><g transform="matrix(0.75,0,0,0.75,249.090909090909,320.3363109941581)"><svg viewBox="0 0 396 227" data-background-color="#331e6d" preserveAspectRatio="xMidYMid meet" height="1146" width="2000" xmlns="http://www.w3.org/2000/svg" xmlns:xlink="http://www.w3.org/1999/xlink"><g id="tight-bounds" transform="matrix(1,0,0,1,0.2400000000000091,-0.02279534109817405)"><svg viewBox="0 0 395.52 227.04559068219635" height="227.04559068219635" width="395.52"><g><svg viewBox="0 0 395.52 227.04559068219635" height="227.04559068219635" width="395.52"><g><svg viewBox="0 0 395.52 227.04559068219635" height="227.04559068219635" width="395.52"><g id="textblocktransform"><svg viewBox="0 0 395.52 227.04559068219635" height="227.04559068219635" width="395.52" id="textblock"><g><svg viewBox="0 0 395.52 227.04559068219635" height="227.04559068219635" width="395.52"><g transform="matrix(1,0,0,1,0,0)"><svg width="395.52" viewBox="1.5 -34.05 60.1 34.5" height="227.04559068219635" data-palette-color="#ffcf31"><path d="M23.65 0.45L23.65 0.45Q23.15-0.75 22.65-2 22.15-3.25 21.65-4.58 21.15-5.9 20.65-7.2L20.65-7.2Q19.95-9.05 19.38-10.2 18.8-11.35 18.13-12.08 17.45-12.8 16.45-13.35L16.45-13.35 19.05-13.05Q17.65-13 16.68-12.98 15.7-12.95 14.3-13L14.3-13 14.8-17.1Q15.6-16.95 15.98-16.9 16.35-16.85 16.7-16.85L16.7-16.85Q18.15-16.85 19.45-17.57 20.75-18.3 21.6-19.78 22.45-21.25 22.45-23.45L22.45-23.45Q22.45-26.7 21.05-28.48 19.65-30.25 17.3-30.25L17.3-30.25Q16.65-30.25 16.05-30.13 15.45-30 14.8-29.75L14.8-29.75 15.2-31.8 15.2-9.85Q15.2-7.15 15.45-5.85 15.7-4.55 16.23-4.17 16.75-3.8 17.65-3.75L17.65-3.75Q17.85-3.25 17.93-2.1 18-0.95 18 0.15L18 0.15Q17.05 0.1 15.45 0.08 13.85 0.05 12.15 0.03 10.45 0 9.25 0L9.25 0Q7.25 0 5.25 0.03 3.25 0.05 1.5 0.15L1.5 0.15Q1.5-1.15 1.6-2.1 1.7-3.05 1.9-3.75L1.9-3.75Q3.25-3.85 3.98-4.28 4.7-4.7 4.95-5.88 5.2-7.05 5.2-9.35L5.2-9.35 5.2-24.65Q5.2-26.9 4.95-28 4.7-29.1 3.98-29.53 3.25-29.95 1.85-30.15L1.85-30.15Q1.65-30.9 1.58-32.2 1.5-33.5 1.5-34L1.5-34Q3-33.95 5.25-33.88 7.5-33.8 10.1-33.8L10.1-33.8Q11.55-33.8 14.4-33.93 17.25-34.05 20.45-34.05L20.45-34.05Q24.8-34.05 27.55-32.77 30.3-31.5 31.6-29.35 32.9-27.2 32.9-24.65L32.9-24.65Q32.9-21.3 31.7-18.98 30.5-16.65 28.45-15.4 26.4-14.15 23.85-13.9L23.85-13.9 25.05-14.55Q26.55-14.15 27.48-13.48 28.4-12.8 29.28-11.38 30.15-9.95 31.5-7.2L31.5-7.2Q32.15-5.95 32.68-5.25 33.2-4.55 33.83-4.28 34.45-4 35.4-3.9L35.4-3.9Q35.4-2.8 35.25-1.85 35.1-0.9 34.85 0L34.85 0Q30.9 0 28.03 0.1 25.15 0.2 23.65 0.45ZM50.75 0.45L50.75 0.45Q45.95 0.45 43.02-1.07 40.1-2.6 38.75-5.23 37.4-7.85 37.4-11.2L37.4-11.2Q37.4-15.05 38.95-17.75 40.5-20.45 43.37-21.9 46.25-23.35 50.1-23.35L50.1-23.35Q54-23.35 56.52-22 59.05-20.65 60.3-18.18 61.55-15.7 61.6-12.4L61.6-12.4Q61.15-10.55 59.95-9.45L59.95-9.45Q58.3-9.45 56.4-9.43 54.5-9.4 52.5-9.38 50.5-9.35 48.5-9.25 46.5-9.15 44.65-9L44.65-9 44.65-12.95 53.35-12.95Q53.35-16.35 52.57-18 51.8-19.65 50.25-19.65L50.25-19.65Q49.1-19.65 48.32-18.8 47.55-17.95 47.17-16.4 46.8-14.85 46.8-12.75L46.8-12.75Q46.8-10.1 47.47-8.15 48.15-6.2 49.62-5.18 51.1-4.15 53.5-4.15L53.5-4.15Q55.3-4.15 57.1-4.7 58.9-5.25 60-6.05L60-6.05Q60.55-5.7 60.95-4.7 61.35-3.7 61.35-2.6L61.35-2.6Q59.3-1.2 56.75-0.38 54.2 0.45 50.75 0.45Z" opacity="1" transform="matrix(1,0,0,1,0,0)" fill="#ffcf31" class="wordmark-text-0" data-fill-palette-color="primary" id="text-0"></path></svg></g></svg></g></svg></g></svg></g><g></g></svg></g><defs></defs></svg><rect width="395.52" height="227.04559068219635" fill="none" stroke="none" visibility="hidden"></rect></g></svg></g></svg>